<svg id="visual" viewBox="0 0 900 400" width="900" height="400" xmlns="http://www.w3.org/2000/svg" xmlns:xlink="http://www.w3.org/1999/xlink" version="1.1"><rect x="0" y="0" width="900" height="400" fill="#181c1f"></rect><path d="M0 107L16.7 101.8C33.3 96.7 66.7 86.3 100 85C133.3 83.7 166.7 91.3 200 90C233.3 88.7 266.7 78.3 300 73.8C333.3 69.3 366.7 70.7 400 73.5C433.3 76.3 466.7 80.7 500 84.7C533.3 88.7 566.7 92.3 600 90.7C633.3 89 666.7 82 700 80.5C733.3 79 766.7 83 800 82.8C833.3 82.7 866.7 78.3 883.3 76.2L900 74L900 0L883.3 0C866.7 0 833.3 0 800 0C766.7 0 733.3 0 700 0C666.7 0 633.3 0 600 0C566.7 0 533.3 0 500 0C466.7 0 433.3 0 400 0C366.7 0 333.3 0 300 0C266.7 0 233.3 0 200 0C166.7 0 133.3 0 100 0C66.7 0 33.3 0 16.7 0L0 0Z" fill="#009688"></path><path d="M0 38L16.7 43.8C33.3 49.7 66.7 61.3 100 62.7C133.3 64 166.7 55 200 52.5C233.3 50 266.7 54 300 54.2C333.3 54.3 366.7 50.7 400 49.8C433.3 49 466.7 51 500 51.5C533.3 52 566.7 51 600 51.5C633.3 52 666.7 54 700 55.8C733.3 57.7 766.7 59.3 800 56.3C833.3 53.3 866.7 45.7 883.3 41.8L900 38L900 0L883.3 0C866.7 0 833.3 0 800 0C766.7 0 733.3 0 700 0C666.7 0 633.3 0 600 0C566.7 0 533.3 0 500 0C466.7 0 433.3 0 400 0C366.7 0 333.3 0 300 0C266.7 0 233.3 0 200 0C166.7 0 133.3 0 100 0C66.7 0 33.3 0 16.7 0L0 0Z" fill="#8cbeb6"></path><path d="M0 33L16.7 29.3C33.3 25.7 66.7 18.3 100 17.7C133.3 17 166.7 23 200 24.2C233.3 25.3 266.7 21.7 300 18.2C333.3 14.7 366.7 11.3 400 10.3C433.3 9.3 466.7 10.7 500 16.8C533.3 23 566.7 34 600 38.3C633.3 42.7 666.7 40.3 700 40.3C733.3 40.3 766.7 42.7 800 40C833.3 37.3 866.7 29.7 883.3 25.8L900 22L900 0L883.3 0C866.7 0 833.3 0 800 0C766.7 0 733.3 0 700 0C666.7 0 633.3 0 600 0C566.7 0 533.3 0 500 0C466.7 0 433.3 0 400 0C366.7 0 333.3 0 300 0C266.7 0 233.3 0 200 0C166.7 0 133.3 0 100 0C66.7 0 33.3 0 16.7 0L0 0Z" fill="#e6e6e6"></path></svg>